<?xml version="1.0" encoding="UTF-8"?>
<svg xmlns="http://www.w3.org/2000/svg" viewBox="0 0 1024 1024" width="1024" height="1024">
  <defs>
    <linearGradient id="bg" x1="0" y1="0" x2="1" y2="1">
      <stop offset="0%" stop-color="#6366f1"/>
      <stop offset="100%" stop-color="#4338ca"/>
    </linearGradient>
    <linearGradient id="pages" x1="0" y1="0" x2="0" y2="1">
      <stop offset="0%" stop-color="#f1f5f9"/>
      <stop offset="100%" stop-color="#cbd5e1"/>
    </linearGradient>
  </defs>
  <rect width="1024" height="1024" rx="200" fill="url(#bg)"/>
  <g transform="translate(512,512) scale(0.85)">
    <!-- Book spine -->
    <rect x="-8" y="-260" width="16" height="520" rx="3" fill="#e2e8f0"/>
    <!-- Left page -->
    <path d="M-8,-260 Q-200,-260 -240,-240 L-240,240 Q-200,260 -8,260 Z" fill="url(#pages)" stroke="#94a3b8" stroke-width="4"/>
    <!-- Right page -->
    <path d="M8,-260 Q200,-260 240,-240 L240,240 Q200,260 8,260 Z" fill="url(#pages)" stroke="#94a3b8" stroke-width="4"/>
    <!-- Text lines on left page -->
    <line x1="-200" y1="-180" x2="-40" y2="-180" stroke="#94a3b8" stroke-width="6" stroke-linecap="round"/>
    <line x1="-200" y1="-130" x2="-40" y2="-130" stroke="#cbd5e1" stroke-width="6" stroke-linecap="round"/>
    <line x1="-200" y1="-80" x2="-40" y2="-80" stroke="#cbd5e1" stroke-width="6" stroke-linecap="round"/>
    <line x1="-200" y1="-30" x2="-100" y2="-30" stroke="#cbd5e1" stroke-width="6" stroke-linecap="round"/>
    <!-- Text lines on right page -->
    <line x1="40" y1="-180" x2="200" y2="-180" stroke="#94a3b8" stroke-width="6" stroke-linecap="round"/>
    <line x1="40" y1="-130" x2="200" y2="-130" stroke="#cbd5e1" stroke-width="6" stroke-linecap="round"/>
    <line x1="40" y1="-80" x2="200" y2="-80" stroke="#cbd5e1" stroke-width="6" stroke-linecap="round"/>
    <line x1="40" y1="-30" x2="140" y2="-30" stroke="#cbd5e1" stroke-width="6" stroke-linecap="round"/>
    <!-- Bookmark -->
    <path d="M-8,-260 L-8,-340 L40,-300 L-8,-260 Z" fill="#fbbf24" stroke="#f59e0b" stroke-width="3" stroke-linejoin="round"/>
  </g>
</svg>
